<svg id="visual" viewBox="0 0 540 960" width="540" height="960" xmlns="http://www.w3.org/2000/svg" xmlns:xlink="http://www.w3.org/1999/xlink" version="1.1"><rect x="0" y="0" width="540" height="960" fill="#d2a665"></rect><defs><linearGradient id="grad1_0" x1="0%" y1="100%" x2="100%" y2="0%"><stop offset="30%" stop-color="#c4872b" stop-opacity="1"></stop><stop offset="70%" stop-color="#c4872b" stop-opacity="1"></stop></linearGradient></defs><defs><linearGradient id="grad1_1" x1="0%" y1="100%" x2="100%" y2="0%"><stop offset="30%" stop-color="#c4872b" stop-opacity="1"></stop><stop offset="70%" stop-color="#c9913f" stop-opacity="1"></stop></linearGradient></defs><defs><linearGradient id="grad1_2" x1="0%" y1="100%" x2="100%" y2="0%"><stop offset="30%" stop-color="#ce9c52" stop-opacity="1"></stop><stop offset="70%" stop-color="#c9913f" stop-opacity="1"></stop></linearGradient></defs><defs><linearGradient id="grad1_3" x1="0%" y1="100%" x2="100%" y2="0%"><stop offset="30%" stop-color="#ce9c52" stop-opacity="1"></stop><stop offset="70%" stop-color="#d2a665" stop-opacity="1"></stop></linearGradient></defs><defs><linearGradient id="grad2_0" x1="0%" y1="100%" x2="100%" y2="0%"><stop offset="30%" stop-color="#c4872b" stop-opacity="1"></stop><stop offset="70%" stop-color="#c4872b" stop-opacity="1"></stop></linearGradient></defs><defs><linearGradient id="grad2_1" x1="0%" y1="100%" x2="100%" y2="0%"><stop offset="30%" stop-color="#c9913f" stop-opacity="1"></stop><stop offset="70%" stop-color="#c4872b" stop-opacity="1"></stop></linearGradient></defs><defs><linearGradient id="grad2_2" x1="0%" y1="100%" x2="100%" y2="0%"><stop offset="30%" stop-color="#c9913f" stop-opacity="1"></stop><stop offset="70%" stop-color="#ce9c52" stop-opacity="1"></stop></linearGradient></defs><defs><linearGradient id="grad2_3" x1="0%" y1="100%" x2="100%" y2="0%"><stop offset="30%" stop-color="#d2a665" stop-opacity="1"></stop><stop offset="70%" stop-color="#ce9c52" stop-opacity="1"></stop></linearGradient></defs><g transform="translate(540, 960)"><path d="M-540 0C-510.1 -35.9 -480.2 -71.7 -462.1 -105.5C-444 -139.2 -437.6 -170.8 -430.7 -207.4C-423.7 -244 -416.3 -285.6 -396.4 -316.1C-376.5 -346.6 -344.2 -366.1 -317.4 -398C-290.5 -429.8 -269 -474 -234.3 -486.5C-199.6 -499.1 -151.6 -479.9 -110.4 -483.6C-69.1 -487.2 -34.6 -513.6 0 -540L0 0Z" fill="#d0a15c"></path><path d="M-405 0C-382.6 -26.9 -360.2 -53.8 -346.6 -79.1C-333 -104.4 -328.2 -128.1 -323 -155.5C-317.8 -183 -312.2 -214.2 -297.3 -237.1C-282.4 -260 -258.2 -274.6 -238 -298.5C-217.9 -322.3 -201.8 -355.5 -175.7 -364.9C-149.7 -374.3 -113.7 -359.9 -82.8 -362.7C-51.8 -365.4 -25.9 -385.2 0 -405L0 0Z" fill="#cb9749"></path><path d="M-270 0C-255.1 -17.9 -240.1 -35.9 -231.1 -52.7C-222 -69.6 -218.8 -85.4 -215.3 -103.7C-211.9 -122 -208.1 -142.8 -198.2 -158.1C-188.3 -173.3 -172.1 -183.1 -158.7 -199C-145.2 -214.9 -134.5 -237 -117.1 -243.3C-99.8 -249.5 -75.8 -240 -55.2 -241.8C-34.6 -243.6 -17.3 -256.8 0 -270L0 0Z" fill="#c68c35"></path><path d="M-135 0C-127.5 -9 -120.1 -17.9 -115.5 -26.4C-111 -34.8 -109.4 -42.7 -107.7 -51.8C-105.9 -61 -104.1 -71.4 -99.1 -79C-94.1 -86.7 -86.1 -91.5 -79.3 -99.5C-72.6 -107.4 -67.3 -118.5 -58.6 -121.6C-49.9 -124.8 -37.9 -120 -27.6 -120.9C-17.3 -121.8 -8.6 -128.4 0 -135L0 0Z" fill="#c4872b"></path></g><g transform="translate(0, 0)"><path d="M540 0C493 31.7 445.9 63.5 432.9 98.8C419.8 134.1 440.7 173 446.9 215.2C453 257.4 444.4 303 422.2 336.7C400 370.4 364.1 392.2 326.7 409.7C289.3 427.2 250.4 440.3 212.2 440.6C173.9 440.8 136.3 428.2 101 442.6C65.8 457 32.9 498.5 0 540L0 0Z" fill="#d0a15c"></path><path d="M405 0C369.7 23.8 334.4 47.6 324.7 74.1C314.9 100.6 330.5 129.7 335.2 161.4C339.8 193.1 333.3 227.2 316.6 252.5C300 277.8 273.1 294.1 245 307.3C217 320.4 187.8 330.2 159.1 330.4C130.4 330.6 102.2 321.1 75.8 332C49.3 342.8 24.7 373.9 0 405L0 0Z" fill="#cb9749"></path><path d="M270 0C246.5 15.9 223 31.7 216.4 49.4C209.9 67.1 220.4 86.5 223.4 107.6C226.5 128.7 222.2 151.5 211.1 168.3C200 185.2 182 196.1 163.4 204.8C144.7 213.6 125.2 220.2 106.1 220.3C87 220.4 68.1 214.1 50.5 221.3C32.9 228.5 16.4 249.3 0 270L0 0Z" fill="#c68c35"></path><path d="M135 0C123.2 7.9 111.5 15.9 108.2 24.7C105 33.5 110.2 43.2 111.7 53.8C113.3 64.4 111.1 75.7 105.5 84.2C100 92.6 91 98 81.7 102.4C72.3 106.8 62.6 110.1 53 110.1C43.5 110.2 34.1 107 25.3 110.7C16.4 114.3 8.2 124.6 0 135L0 0Z" fill="#c4872b"></path></g></svg>